<svg width="44" height="40" viewBox="0 0 44 40" fill="none" xmlns="http://www.w3.org/2000/svg">
<g clip-path="url(#clip0_1_167)">
<path d="M43.5181 29.1998C43.4651 29.0954 43.4157 29.0089 43.3698 28.9395C42.6108 27.6896 41.1602 26.1554 39.0191 24.3365L38.9738 24.2949L38.9512 24.2744L38.9283 24.2535H38.9053C37.9335 23.4065 37.3182 22.8371 37.0605 22.5455C36.5889 21.9901 36.4833 21.4279 36.741 20.8583C36.9231 20.4279 37.607 19.519 38.7911 18.1303C39.414 17.3944 39.9073 16.8046 40.2716 16.3602C42.899 13.1667 44.038 11.1259 43.6886 10.2373L43.5529 10.0296C43.4617 9.90455 43.2263 9.79017 42.8471 9.68586C42.467 9.58177 41.9812 9.56455 41.3888 9.63393L34.8287 9.67536C34.7224 9.64093 34.5707 9.64414 34.373 9.68586C34.1755 9.72759 34.0767 9.74852 34.0767 9.74852L33.9625 9.80068L33.8719 9.86334C33.796 9.90477 33.7124 9.97764 33.6212 10.0818C33.5305 10.1856 33.4546 10.3074 33.394 10.4462C32.6798 12.1262 31.8677 13.6882 30.9564 15.1321C30.3945 15.9931 29.8784 16.7392 29.4071 17.371C28.9365 18.0025 28.5416 18.4679 28.223 18.7661C27.9039 19.0647 27.6158 19.3039 27.3572 19.4846C27.0989 19.6653 26.9018 19.7417 26.7653 19.7138C26.6284 19.6858 26.4996 19.6581 26.3776 19.6304C26.1651 19.5054 25.9942 19.3353 25.8654 19.1201C25.736 18.9049 25.6488 18.6341 25.6033 18.3078C25.558 17.9813 25.5312 17.7005 25.5235 17.4644C25.5164 17.2285 25.5197 16.8949 25.5351 16.4646C25.5509 16.034 25.558 15.7426 25.558 15.5899C25.558 15.0622 25.5692 14.4895 25.5918 13.8717C25.6148 13.2538 25.6334 12.7643 25.6489 12.4036C25.6644 12.0426 25.6716 11.6607 25.6716 11.258C25.6716 10.8554 25.6448 10.5396 25.5918 10.3104C25.5395 10.0815 25.4591 9.85933 25.3533 9.64392C25.2467 9.42873 25.0908 9.26227 24.8863 9.1441C24.6813 9.02607 24.4265 8.93241 24.1232 8.86282C23.3183 8.69629 22.2933 8.6062 21.0478 8.5922C18.2234 8.56448 16.4085 8.73123 15.6037 9.09223C15.2848 9.24476 14.9962 9.45317 14.7382 9.71679C14.4648 10.0224 14.4266 10.1891 14.624 10.2165C15.5353 10.3413 16.1804 10.6399 16.5601 11.1119L16.697 11.3621C16.8034 11.5425 16.9097 11.862 17.016 12.3201C17.1222 12.7782 17.1907 13.285 17.2209 13.8401C17.2967 14.8538 17.2967 15.7216 17.2209 16.4434C17.1449 17.1656 17.0731 17.7278 17.0045 18.1304C16.936 18.5331 16.8336 18.8594 16.697 19.1092C16.5601 19.3591 16.4691 19.5119 16.4235 19.5673C16.3779 19.6227 16.3399 19.6577 16.3098 19.6714C16.1124 19.7405 15.9071 19.7758 15.6946 19.7758C15.4819 19.7758 15.2238 19.6785 14.9202 19.484C14.6166 19.2895 14.3015 19.0224 13.975 18.6822C13.6484 18.3419 13.2801 17.8664 12.87 17.2555C12.4601 16.6447 12.0349 15.9227 11.5945 15.0897L11.2301 14.4856C11.0023 14.0969 10.6912 13.531 10.2963 12.7884C9.90123 12.0454 9.55202 11.3268 9.24844 10.6325C9.12709 10.341 8.94479 10.119 8.70184 9.96626L8.58783 9.9036C8.51204 9.84816 8.39037 9.7893 8.22346 9.72656C8.05631 9.66391 7.88191 9.61897 7.69952 9.59132L1.45813 9.63276C0.820335 9.63276 0.387589 9.76486 0.159727 10.0287L0.0685342 10.1535C0.0229777 10.223 0 10.3341 0 10.4869C0 10.6396 0.0455565 10.8271 0.136749 11.0491C1.04788 13.0069 2.03871 14.8951 3.10925 16.7139C4.17979 18.5327 5.11006 19.9978 5.89952 21.1079C6.68914 22.2188 7.494 23.2672 8.3141 24.2527C9.13419 25.2385 9.67704 25.8703 9.94264 26.1479C10.2086 26.4259 10.4174 26.6338 10.5693 26.7727L11.1388 27.2724C11.5033 27.6057 12.0385 28.0048 12.7446 28.4699C13.451 28.9352 14.2329 29.3933 15.0909 29.8449C15.9491 30.2958 16.9474 30.6637 18.0865 30.9482C19.2254 31.2331 20.3339 31.3474 21.4122 31.2923H24.0318C24.5631 31.2503 24.9656 31.0976 25.2392 30.8339L25.3298 30.7296C25.3907 30.6467 25.4478 30.5179 25.5005 30.3447C25.5537 30.1712 25.5802 29.98 25.5802 29.772C25.5647 29.1751 25.6144 28.6371 25.728 28.1582C25.8415 27.6794 25.9709 27.3184 26.1157 27.0752C26.2603 26.8323 26.4235 26.6273 26.6052 26.4612C26.7873 26.2946 26.917 26.1938 26.9931 26.159C27.0688 26.1241 27.1292 26.1004 27.1747 26.0862C27.5392 25.9751 27.9681 26.0827 28.4621 26.4092C28.9557 26.7355 29.4187 27.1384 29.8518 27.6172C30.2846 28.0965 30.8046 28.6341 31.4119 29.2311C32.0197 29.8282 32.551 30.272 33.0064 30.564L33.4618 30.814C33.766 30.9807 34.1608 31.1335 34.6469 31.2723C35.132 31.411 35.5571 31.4457 35.9221 31.3764L41.7533 31.2932C42.33 31.2932 42.7788 31.2059 43.0971 31.0326C43.4161 30.8591 43.6056 30.6679 43.6667 30.46C43.7277 30.2518 43.7309 30.0156 43.6783 29.7515C43.6243 29.4881 43.571 29.3039 43.5181 29.1998Z" fill="white"/>
</g>
<defs>
<clipPath id="clip0_1_167">
<rect width="43.75" height="40" fill="white"/>
</clipPath>
</defs>
</svg>
